HIERARCHY
ROOT Hips
{
	OFFSET 0.000000 0.000000 0.000000
	CHANNELS 6 Xposition Yposition Zposition Zrotation Yrotation Xrotation 
	JOINT LHipJoint
	{
		OFFSET 0.000000 0.000000 0.000000
		CHANNELS 3 Zrotation Yrotation Xrotation
		JOINT LeftUpLeg
		{
			OFFSET 1.363060 -1.794630 0.839290
			CHANNELS 3 Zrotation Yrotation Xrotation
			JOINT LeftLeg
			{
				OFFSET 2.448110 -6.726130 0.000000
				CHANNELS 3 Zrotation Yrotation Xrotation
				JOINT LeftFoot
				{
					OFFSET 2.562200 -7.039590 0.000000
					CHANNELS 3 Zrotation Yrotation Xrotation
					JOINT LeftToeBase
					{
						OFFSET 0.157640 -0.433110 2.322550
						CHANNELS 3 Zrotation Yrotation Xrotation
						End Site
						{
							OFFSET 0.000000 0.000000 0.000000
						}
					}
				}
			}
		}
	}
	JOINT RHipJoint
	{
		OFFSET 0.000000 0.000000 0.000000
		CHANNELS 3 Zrotation Yrotation Xrotation
		JOINT RightUpLeg
		{
			OFFSET -1.305520 -1.794630 0.839290
			CHANNELS 3 Zrotation Yrotation Xrotation
			JOINT RightLeg
			{
				OFFSET -2.542530 -6.985550 0.000000
				CHANNELS 3 Zrotation Yrotation Xrotation
				JOINT RightFoot
				{
					OFFSET -2.568260 -7.056230 0.000000
					CHANNELS 3 Zrotation Yrotation Xrotation
					JOINT RightToeBase
					{
						OFFSET -0.164730 -0.452590 2.363150
						CHANNELS 3 Zrotation Yrotation Xrotation
						End Site
						{
							OFFSET 0.000000 0.000000 0.000000
						}
					}
				}
			}
		}
	}
	JOINT LowerBack
	{
		OFFSET 0.000000 0.000000 0.000000
		CHANNELS 3 Zrotation Yrotation Xrotation
		JOINT Spine
		{
			OFFSET 0.028270 2.035590 -0.193380
			CHANNELS 3 Zrotation Yrotation Xrotation
			JOINT Spine1
			{
				OFFSET 0.056720 2.048850 -0.042750
				CHANNELS 3 Zrotation Yrotation Xrotation
				JOINT Neck
				{
					OFFSET 0.000000 0.000000 0.000000
					CHANNELS 3 Zrotation Yrotation Xrotation
					JOINT Neck1
					{
						OFFSET -0.054170 1.746240 0.172020
						CHANNELS 3 Zrotation Yrotation Xrotation
						JOINT Head
						{
							OFFSET 0.104070 1.761360 -0.123970
							CHANNELS 3 Zrotation Yrotation Xrotation
							End Site
							{
								OFFSET 0.000000 0.000000 0.000000
							}
						}
					}
				}
				JOINT LeftShoulder
				{
					OFFSET 0.000000 0.000000 0.000000
					CHANNELS 3 Zrotation Yrotation Xrotation
					JOINT LeftArm
					{
						OFFSET 3.362410 1.200890 -0.311210
						CHANNELS 3 Zrotation Yrotation Xrotation
						JOINT LeftForeArm
						{
							OFFSET 4.983000 -0.000000 -0.000000
							CHANNELS 3 Zrotation Yrotation Xrotation
							JOINT LeftHand
							{
								OFFSET 3.483560 -0.000000 -0.000000
								CHANNELS 3 Zrotation Yrotation Xrotation
								JOINT LeftFingerBase
								{
									OFFSET 0.000000 0.000000 0.000000
									CHANNELS 3 Zrotation Yrotation Xrotation
									JOINT LeftHandIndex1
									{
										OFFSET 0.715260 -0.000000 -0.000000
										CHANNELS 3 Zrotation Yrotation Xrotation
										End Site
										{
											OFFSET 0.000000 0.000000 0.000000
										}
									}
								}
								JOINT LThumb
								{
									OFFSET 0.000000 0.000000 0.000000
									CHANNELS 3 Zrotation Yrotation Xrotation
									End Site
									{
										OFFSET 0.000000 0.000000 0.000000
									}
								}
							}
						}
					}
				}
				JOINT RightShoulder
				{
					OFFSET 0.000000 0.000000 0.000000
					CHANNELS 3 Zrotation Yrotation Xrotation
					JOINT RightArm
					{
						OFFSET -3.136600 1.374050 -0.404650
						CHANNELS 3 Zrotation Yrotation Xrotation
						JOINT RightForeArm
						{
							OFFSET -5.241900 -0.000000 -0.000000
							CHANNELS 3 Zrotation Yrotation Xrotation
							JOINT RightHand
							{
								OFFSET -3.444170 -0.000000 -0.000000
								CHANNELS 3 Zrotation Yrotation Xrotation
								JOINT RightFingerBase
								{
									OFFSET 0.000000 0.000000 0.000000
									CHANNELS 3 Zrotation Yrotation Xrotation
									JOINT RightHandIndex1
									{
										OFFSET -0.622530 -0.000000 -0.000000
										CHANNELS 3 Zrotation Yrotation Xrotation
										End Site
										{
											OFFSET 0.000000 0.000000 0.000000
										}
									}
								}
								JOINT RThumb
								{
									OFFSET 0.000000 0.000000 0.000000
									CHANNELS 3 Zrotation Yrotation Xrotation
									End Site
									{
										OFFSET 0.000000 0.000000 0.000000
									}
								}
							}
						}
					}
				}
			}
		}
	}
}
MOTION
Frames: 5
Frame Time: 0.008333
-4.428961 16.552737 -1.677066 26.231760 81.226663 45.678859 -9.882693 1.091901 0.827053 -12.226665 1.863205 -33.031079 -2.164089 1.201506 36.854537 2.378320 9.939522 -18.642960 -2.144300 0.000000 -42.771100 11.565410 0.403309 -0.424255 1.039262 -3.780273 -43.399057 -2.154440 -5.022333 77.585484 -1.520244 -6.910138 -7.027745 -0.172200 -0.000000 -45.597400 -1.489712 -1.718675 -0.289210 0.184265 -1.523932 -3.785397 -0.420043 -1.543717 -4.170096 -0.415422 -3.702420 -6.360073 0.550514 0.025934 0.298374 0.000000 0.000000 0.000000 9.483054 -4.419627 -0.667333 0.918181 -51.651166 -55.738998 2.019158 -55.974488 -0.277054 21.305114 -0.683643 -0.278438 -0.332211 0.768568 -0.000000 0.000000 0.000000 0.000000 0.000000 0.000000 0.000000 -11.767286 3.644873 2.563251 -21.787271 61.721786 -42.660747 -0.502374 44.092309 -0.012560 -1.109905 6.511234 -0.067518 -0.017069 -0.560846 -0.000000 0.000000 0.000000 0.000000 0.000000 0.000000 0.000000 
-4.241025 16.641186 -1.644701 24.126683 80.970821 44.038456 -9.946151 1.169353 0.851469 -11.937622 2.149095 -31.990063 -2.162623 1.053888 34.998210 2.314217 10.021458 -17.299428 -1.875100 0.000000 -43.435600 11.376027 0.558687 -0.315712 1.953073 -3.755316 -45.358028 -1.964021 -4.972315 76.078474 -1.358222 -5.801107 -6.619910 -0.190900 0.000000 -48.047400 -1.035298 -1.810579 -0.380185 0.308601 -1.643233 -3.761406 -0.335193 -1.667725 -3.932610 -0.597582 -4.003759 -6.754305 0.615730 0.039225 0.178139 0.000000 0.000000 0.000000 9.397598 -4.324530 -0.422273 1.423704 -51.021058 -55.093148 2.048830 -54.648319 -0.284085 22.124435 -0.163615 -0.183078 -0.364991 0.752242 -0.000000 0.000000 0.000000 0.000000 0.000000 0.000000 0.000000 -12.103708 3.283256 2.808213 -24.489127 61.753902 -43.622116 -0.365681 44.050747 0.000250 0.509936 6.116586 0.032455 -0.045321 -0.539640 0.000000 0.000000 0.000000 0.000000 0.000000 0.000000 0.000000 
-4.050588 16.732886 -1.606527 22.508078 80.753197 42.902707 -10.012183 1.258897 0.871983 -11.685269 2.534069 -31.049265 -2.164127 0.919109 33.203596 2.213587 9.942875 -15.770187 -1.547700 -0.000001 -44.474100 11.183759 0.670766 -0.186809 2.914094 -3.745817 -47.239608 -1.741940 -4.920057 74.271007 -1.169481 -4.542388 -6.131916 -0.195100 0.000000 -50.561600 -0.631752 -1.912803 -0.507341 0.422562 -1.770223 -3.739218 -0.254131 -1.800962 -3.668531 -0.735469 -4.332615 -7.158623 0.684041 0.053060 0.055065 0.000000 0.000000 0.000000 9.379137 -4.175441 -0.130013 2.135187 -50.476865 -54.220619 2.060135 -53.113668 -0.282994 22.313461 0.288810 -0.090693 -0.385100 0.735403 -0.000000 0.000000 0.000000 0.000000 0.000000 0.000000 0.000000 -12.403507 2.880605 3.021838 -26.908268 61.742283 -44.426175 -0.235392 44.147597 0.014665 2.489522 5.573270 0.137143 -0.082953 -0.514730 0.000000 0.000000 0.000000 0.000000 0.000000 0.000000 0.000000 
-3.857944 16.827004 -1.562293 21.360391 80.570802 42.239470 -10.082313 1.361380 0.880446 -11.472063 3.037429 -30.200256 -2.172745 0.800870 31.487440 2.073200 9.677814 -14.054324 -1.174400 0.000000 -45.972400 10.991960 0.736980 -0.041323 3.906529 -3.750699 -49.011766 -1.486336 -4.866966 72.171938 -0.953380 -3.138852 -5.611280 -0.174300 -0.000000 -53.034600 -0.290500 -2.022013 -0.658715 0.522683 -1.900938 -3.717507 -0.180159 -1.939266 -3.384609 -0.827337 -4.679897 -7.563117 0.751693 0.066956 -0.067911 0.000000 0.000000 0.000000 9.417336 -3.984823 0.208527 3.030342 -50.025840 -53.127212 2.044582 -51.406961 -0.273262 21.818262 0.647605 -0.015083 -0.390886 0.718390 -0.000000 0.000000 0.000000 0.000000 0.000000 0.000000 0.000000 -12.647734 2.446715 3.197677 -28.993940 61.700660 -45.071110 -0.116311 44.368808 0.029759 4.727600 4.860164 0.227239 -0.127551 -0.486045 0.000000 0.000000 0.000000 0.000000 0.000000 0.000000 0.000000 
-3.663436 16.922729 -1.512104 20.635329 80.418808 41.982350 -10.158104 1.476613 0.869446 -11.291675 3.671743 -29.424737 -2.191263 0.701903 29.855058 1.891800 9.205107 -12.148044 -0.773700 0.000000 -47.970600 10.803713 0.756230 0.115835 4.920328 -3.766589 -50.640961 -1.194537 -4.813409 69.796768 -0.709086 -1.593382 -5.107022 -0.121000 -0.000000 -55.212700 -0.013097 -2.133167 -0.820076 0.607656 -2.030162 -3.694677 -0.115747 -2.077092 -3.088379 -0.878120 -5.034450 -7.957828 0.815924 0.080486 -0.187845 0.000000 0.000000 0.000000 9.497186 -3.766026 0.590899 4.078262 -49.669109 -51.818734 1.993991 -49.576380 -0.254951 20.637025 0.884899 0.032855 -0.381331 0.701466 -0.000000 0.000000 0.000000 0.000000 0.000000 0.000000 0.000000 -12.829382 1.994694 3.329856 -30.697513 61.645176 -45.558309 -0.012786 44.693432 0.044602 7.098512 3.966566 0.281535 -0.176001 -0.453802 0.000000 0.000000 0.000000 0.000000 0.000000 0.000000 0.000000 
